<svg id="svg" xmlns="http://www.w3.org/2000/svg" xmlns:xlink="http://www.w3.org/1999/xlink" width="400" height="400" viewBox="0, 0, 400,400" version="1.1"><g id="svgg"><path id="path0" d="M71.970 71.970 C 37.980 105.960,37.980 294.040,71.970 328.030 C 105.960 362.020,294.040 362.020,328.030 328.030 C 362.020 294.040,362.020 105.960,328.030 71.970 C 294.040 37.980,105.960 37.980,71.970 71.970 M279.167 91.667 C 293.418 97.791,293.720 98.913,281.250 99.414 C 259.899 100.272,261.930 133.333,283.333 133.333 C 293.450 133.333,300.208 127.602,300.528 118.750 C 300.900 108.497,303.565 110.353,309.506 125.000 C 323.490 159.480,315.187 280.058,297.619 297.622 C 275.727 319.509,124.273 319.509,102.381 297.622 C 67.776 263.025,80.066 107.464,118.629 91.971 C 142.509 82.377,257.044 82.160,279.167 91.667 M138.636 138.636 C 107.320 169.953,107.320 230.047,138.636 261.364 C 169.953 292.680,230.047 292.680,261.364 261.364 C 315.918 206.809,277.690 116.667,200.000 116.667 C 168.548 116.667,156.177 121.096,138.636 138.636 M231.667 168.333 C 244.558 181.224,244.558 218.776,231.667 231.667 C 205.442 257.891,158.333 237.549,158.333 200.000 C 158.333 162.451,205.442 142.109,231.667 168.333 " stroke="none" fill="#000000" fill-rule="evenodd"></path></g></svg>