<svg id="svg" xmlns="http://www.w3.org/2000/svg" xmlns:xlink="http://www.w3.org/1999/xlink" width="400" height="400" viewBox="0, 0, 400,400" version="1.1"><g id="svgg"><path id="path0" d="M110.531 54.650 C 5.217 117.770,5.696 283.682,111.370 345.612 C 262.695 434.294,434.294 262.695,345.612 111.370 C 300.640 34.632,188.910 7.673,110.531 54.650 M264.660 91.622 C 345.150 140.697,345.150 259.303,264.660 308.378 C 226.842 331.436,225.000 330.273,225.000 283.333 C 225.000 244.444,226.389 241.667,245.833 241.667 C 262.500 241.667,266.667 237.500,266.667 220.833 C 266.667 204.023,262.537 200.000,245.280 200.000 C 216.033 200.000,218.443 155.690,247.917 151.504 C 282.501 146.592,273.270 108.333,237.500 108.333 C 199.182 108.333,175.000 132.515,175.000 170.833 C 175.000 196.389,172.421 200.000,154.167 200.000 C 137.500 200.000,133.333 204.167,133.333 220.833 C 133.333 237.500,137.500 241.667,154.167 241.667 C 173.611 241.667,175.000 244.444,175.000 283.333 C 175.000 330.273,173.158 331.436,135.340 308.378 C 54.850 259.303,54.850 140.697,135.340 91.622 C 170.996 69.882,229.004 69.882,264.660 91.622 " stroke="none" fill="#000000" fill-rule="evenodd"></path></g></svg>